**ABCDEFGHIJKLMNOPQRSTUVWXYZabcdefghijklmnopqrstuvwxyz**************************
**PARASOLID !"#$%&'()*+,-./:;<=>?@[\]^_`{|}~0123456789**************************
**PART1;
MC=AMD64;
MC_MODEL=Intel64 Family 6 Model 94 Stepping 3, GenuineIntel;
MC_ID=unknown;
OS=Windows_NT;
OS_RELEASE=unknown;
FRU=Parasolid Version 31.1, build 284, 10- 9-2019;
APPL=SOLIDWORKS 2020-2019357;
SITE=;
USER=unknown;
FORMAT=text;
GUISE=transmit;
KEY=30_way_plastic_connector;
FILE=30_way_plastic_connector.x_t;
DATE=Tue Oct 20 12:14:51 2020;
**PART2;
SCH=SCH_3101284_31100;
USFLD_SIZE=0;
**PART3;
**END_OF_HEADER*****************************************************************
T51 : TRANSMIT FILE created by modeller version 310128423 SCH_3101284_31100_1300
6222 0 12 34 CCCCCCI4 mesh1006 0 I8 polyline1008 0 CCCCCCCDI5 owner1040 0 CCCCCC
I13 boundary_mesh1006 0 I17 boundary_polyline1008 0 CCCA16 index_map_offset0 0 1
 dA9 index_map82 0 A17 node_id_index_map82 0 A20 schema_embedding_map82 0 A5 chi
ld12 0 A14 lowest_node_id0 0 1 dA16 mesh_offset_data206 0 Z1 1944 2 3 0 0 0 0 0
 0 1e3 1e-8 0 4 0 1 0 1 1 5 6 7 8 0 0 9 10 11 0 0 0 0 0 0 0 81 255 2 2 1892 12 1
 13 0 0 0 0 14 70 11 CI9 list_type0 0 1 uI10 notransmit0 0 1 lCCCDCCDI12 finger_
index0 0 1 dI12 finger_block1012 0 CZ3 0 4 T1 0 0 11 20 1 15 15 13 255 5 10 0 1
 0 16 0 0 17 0 50 255 6 378 0 18 19 0 0 +.01315 170761842166467e-32 -.002 0 0 1
 1 0 0 30 255 7 412 0 20 21 0 0 +.01315 .006 -.002 1 0 0 29 255 8 657 0 11 22 0
 .01265 -.01185 0 19 8 CCCCCCCA5 owner12 0 Z9 1 0 1 17 0 23 V0 16 255 10 132 0 ?
24 0 25 26 0 0 1 18 255 11 655 0 27 0 28 8 ?1 17 255 27 0 29 30 31 11 32 33 0 34
 +18 28 631 0 35 11 36 22 ?1 17 35 0 37 38 39 28 40 41 0 42 +18 36 622 0 43 28 4
4 45 ?1 29 22 633 0 28 45 8 .01265 -.00585 0 29 45 624 0 36 46 22 .01265 15e-5 0
 29 46 613 0 44 47 45 .01265 -.0022 0 18 44 611 0 48 36 49 46 ?1 29 47 610 0 49
 50 46 .01265 -.0063 0 18 49 608 0 39 44 51 47 ?1 29 50 607 0 51 52 47 .01265 -.
0082 0 18 51 605 0 53 49 54 50 ?1 29 52 604 0 54 55 50 .01265 -.0123 0 18 54 602
 0 31 51 56 52 ?1 29 55 601 0 56 57 52 .01265 -.0142 0 18 56 599 0 58 54 59 55 ?
1 29 57 598 0 59 60 55 .01265 -3e-4 -.002 18 59 596 0 61 56 62 57 ?1 29 60 595 0
 62 63 57 .01265 -.0022 -.002 18 62 593 0 64 59 65 60 ?1 29 63 592 0 65 66 60 .0
1265 -.0063 -.002 18 65 590 0 67 62 68 63 ?1 29 66 589 0 68 69 63 .01265 -.0082
 -.002 18 68 587 0 70 65 71 66 ?1 29 69 586 0 71 72 66 .01265 -.0123 -.002 18 71
 584 0 73 68 74 69 ?1 29 72 583 0 74 75 69 .01265 -.0142 -.002 18 74 581 0 76 71
 77 72 ?1 29 75 363 0 77 78 72 .00915 -.0205 .0046 18 77 245 0 79 74 80 75 ?1 29
 78 359 0 80 81 75 .00715 .006 -.002 18 80 249 0 82 77 83 78 ?1 29 81 358 0 83 8
4 78 .00715 -.0205 -.002 18 83 250 0 85 80 86 81 ?1 29 84 357 0 86 87 81 .00715
 -.0205 .0026 18 86 251 0 88 83 89 84 ?1 29 87 356 0 89 90 84 .00915 .004 .0046
 18 89 252 0 91 86 92 87 ?1 29 90 355 0 92 93 87 .00715 .006 .0026 18 92 253 0 9
4 89 95 90 ?1 29 93 354 0 95 96 90 .00965 .0035 .0087 18 95 254 0 97 92 98 93 ?1
 29 96 353 0 98 99 93 .00965 -.02 .0087 18 98 255 0 100 95 101 96 ?1 29 99 352 0
 101 102 96 .01215 -.01515 .0087 18 101 256 0 103 98 104 99 ?1 29 102 351 0 104
 105 99 .01215 -.01135 .0087 18 104 257 0 106 101 107 102 ?1 29 105 350 0 107 10
8 102 .01215 -.00915 .0087 18 107 258 0 109 104 110 105 ?1 29 108 349 0 110 111
 105 .01215 -.00535 .0087 18 110 259 0 112 107 113 108 ?1 29 111 348 0 113 114 1
08 .01215 -.00315 .0087 18 113 260 0 115 110 116 111 ?1 29 114 347 0 116 117 111
 .01215 65e-5 .0087 18 116 261 0 118 113 119 114 ?1 29 117 346 0 119 120 114 .01
265 15e-5 .0082 18 119 262 0 121 116 122 117 ?1 29 120 345 0 122 123 117 .01265
 -.00585 .0082 18 122 263 0 38 119 124 120 ?1 29 123 344 0 124 125 120 .01265 -.
01185 .0082 18 124 264 0 30 122 126 123 ?1 29 125 343 0 126 127 123 .00915 .004
 .0082 18 126 265 0 128 124 129 125 ?1 29 127 342 0 129 130 125 .00915 -.0205 .0
082 18 129 266 0 131 126 132 127 ?1 29 130 327 0 132 133 127 .01265 -.01465 .008
2 18 132 281 0 134 129 135 130 ?1 29 133 326 0 135 136 130 .01265 -.00865 .0082
 18 135 282 0 137 132 138 133 ?1 29 136 325 0 138 139 133 .01265 -.00265 .0082 1
8 138 283 0 140 135 141 136 ?1 29 139 1340 0 141 142 136 .01265 -3e-4 0 18 141 8
83 0 143 138 144 139 ?1 29 142 1346 0 144 145 139 .01265 -.00265 0 18 144 882 0
 146 141 147 142 ?1 29 145 1347 0 147 148 142 .01265 -.00865 0 18 147 876 0 149
 144 150 145 ?1 29 148 1348 0 150 151 145 .01265 -.01465 0 18 150 857 0 152 147
 153 148 ?1 29 151 1361 0 153 154 148 .03 -.0205 .0082 18 153 865 0 155 150 156
 151 ?1 29 154 1362 0 156 157 151 .03 .004 .0082 18 156 863 0 158 153 159 154 ?1
 29 157 1363 0 159 160 154 .0265 -.01185 .0082 18 159 903 0 161 156 162 157 ?1 2
9 160 1364 0 162 163 157 .0265 -.01465 .0082 18 162 869 0 164 159 165 160 ?1 29
 163 1365 0 165 166 160 .0265 -.00585 .0082 18 165 897 0 167 162 168 163 ?1 29 1
66 1366 0 168 169 163 .0265 -.00865 .0082 18 168 874 0 170 165 171 166 ?1 29 169
 1367 0 171 172 166 .0265 15e-5 .0082 18 171 891 0 173 168 174 169 ?1 29 172 136
8 0 174 175 169 .0265 -.00265 .0082 18 174 880 0 176 171 177 172 ?1 29 175 1369
 0 177 178 172 .027 65e-5 .0087 18 177 888 0 179 174 180 175 ?1 29 178 1370 0 18
0 181 175 .027 -.00315 .0087 18 180 892 0 182 177 183 178 ?1 29 181 1371 0 183 1
84 178 .027 -.00535 .0087 18 183 889 0 185 180 186 181 ?1 29 184 1372 0 186 187
 181 .027 -.00915 .0087 18 186 898 0 188 183 189 184 ?1 29 187 1373 0 189 190 18
4 .027 -.01135 .0087 18 189 890 0 191 186 192 187 ?1 29 190 1374 0 192 193 187 .
027 -.01515 .0087 18 192 904 0 194 189 195 190 ?1 29 193 1375 0 195 196 190 .029
5 .0035 .0087 18 195 887 0 197 192 198 193 ?1 29 196 1376 0 198 199 193 .0295 -.
02 .0087 18 198 886 0 200 195 201 196 ?1 29 199 1377 0 201 202 196 .03 .004 .004
6 18 201 864 0 203 198 204 199 ?1 29 202 1378 0 204 205 199 .03 -.0205 .0046 18
 204 866 0 206 201 207 202 ?1 29 205 1379 0 207 208 202 .032 .006 .0026 18 207 9
10 0 209 204 210 205 ?1 29 208 1380 0 210 211 205 .032 -.0205 .0026 18 210 867 0
 212 207 213 208 ?1 29 211 1381 0 213 214 208 .032 -.0205 -.002 18 213 924 0 215
 210 216 211 ?1 29 214 1382 0 216 217 211 .032 .006 -.002 18 216 932 0 218 213 2
19 214 ?1 29 217 1383 0 219 220 214 .026 -.0142 -.002 18 219 926 0 221 216 222 2
17 ?1 29 220 1384 0 222 223 217 .026 -.0123 -.002 18 222 920 0 224 219 225 220 ?
1 29 223 1385 0 225 226 220 .026 -.0022 -.002 18 225 930 0 227 222 228 223 ?1 29
 226 1386 0 228 229 223 .026 -3e-4 -.002 18 228 912 0 230 225 231 226 ?1 29 229
 1387 0 231 232 226 .026 -.0082 -.002 18 231 928 0 233 228 234 229 ?1 29 232 138
8 0 234 235 229 .026 -.0063 -.002 18 234 916 0 236 231 237 232 ?1 29 235 1389 0
 237 238 232 .026 -3e-4 0 18 237 884 0 239 234 240 235 1e-8 1 29 238 1390 0 240
 241 235 .026 -.0022 0 18 240 914 0 242 237 243 238 1e-8 1 29 241 1391 0 243 244
 238 .026 -.0063 0 18 243 878 0 245 240 246 241 1e-8 1 29 244 1392 0 246 247 241
 .026 -.0082 0 18 246 918 0 248 243 249 244 1e-8 1 29 247 1393 0 249 250 244 .02
6 -.0123 0 18 249 872 0 251 246 252 247 1e-8 1 29 250 1394 0 252 253 247 .026 -.
0142 0 18 252 922 0 254 249 255 250 1e-8 1 29 253 1395 0 255 256 250 .0265 -.011
85 0 18 255 906 0 257 252 258 253 ?1 29 256 1396 0 258 259 253 .0265 -.01465 0 1
8 258 870 0 260 255 261 256 ?1 29 259 1397 0 261 262 256 .0265 -.00585 0 18 261
 900 0 263 258 264 259 ?1 29 262 1398 0 264 265 259 .0265 -.00865 0 18 264 875 0
 266 261 267 262 ?1 29 265 1399 0 267 268 262 .0265 15e-5 0 18 267 894 0 269 264
 270 265 ?1 29 268 1400 0 270 0 265 .0265 -.00265 0 18 270 881 0 271 267 0 268 ?
1 17 271 0 272 273 274 270 275 276 0 277 +15 255 272 1023 0 273 278 0 17 273 0 2
72 279 271 174 277 280 0 281 +17 274 0 272 271 279 267 282 283 0 0 -17 275 0 284
 285 286 267 271 276 0 274 -16 276 787 0 ?271 287 288 289 0 0 1 17 277 0 290 291
 176 270 273 280 0 286 -15 290 1018 0 291 292 0 17 291 0 290 293 277 144 286 294
 0 0 +17 176 0 290 277 293 174 295 296 0 273 +16 280 785 0 ?273 283 297 298 0 0
 1 17 286 0 284 275 299 270 291 294 0 0 -15 284 1041 0 299 300 0 17 299 0 284 28
6 301 144 48 302 0 291 -16 294 782 0 ?291 303 304 305 0 0 1 16 303 777 0 ?306 30
7 294 308 0 0 1 16 304 806 0 ?269 294 283 309 0 0 1 30 305 1317 0 294 298 310 0
 +-5e-4 -.00265 0 -1 0 0 30 298 1318 0 280 311 305 0 +.0265 -.00265 -.0271447969
2316745 0 0 1 30 310 1316 0 312 305 313 0 +-5e-4 -.00585 0 1 0 0 16 312 812 0 ?2
63 314 307 310 0 0 1 30 313 1315 0 307 310 308 0 +.0265 -.00585 -.02714479692316
745 0 0 1 16 307 813 0 ?315 312 303 313 0 0 1 30 308 1314 0 303 313 316 0 +.0265
 -.00865 -.02714479692316745 0 0 1 30 316 1313 0 314 308 317 0 +-5e-4 -.00865 0
 -1 0 0 16 314 774 0 ?318 319 312 316 0 0 1 30 317 1312 0 320 316 321 0 +-5e-4 -
.01185 0 1 0 0 16 320 818 0 ?257 322 323 317 0 0 1 30 321 1311 0 323 317 324 0 +
.0265 -.01185 -.02714479692316745 0 0 1 16 323 819 0 ?325 320 319 321 0 0 1 30 3
24 1310 0 319 321 326 0 +.0265 -.01465 -.02714479692316745 0 0 1 16 319 769 0 ?3
27 323 314 324 0 0 1 30 326 1309 0 322 324 328 0 +-5e-4 -.01465 0 -1 0 0 16 322
 766 0 ?329 330 320 326 0 0 1 30 328 1308 0 330 326 331 0 +.0265 -.012 0 0 -1 0
 16 330 771 0 ?260 332 322 328 0 0 1 30 331 1307 0 1 328 333 334 +.026 0 0 0 -1
 0 133 255 333 1306 0 332 331 335 0 +331 .026 -.0123 0 .026 -.0142 0 .0123 .0142
 141 255 334 333 334 334 331 16 332 773 0 ?336 337 330 333 0 0 1 30 335 1305 0 3
37 333 338 0 +.0265 -.006 0 0 -1 0 16 337 779 0 ?266 288 332 335 0 0 1 30 338 13
04 0 1 335 339 340 +.026 0 0 0 -1 0 133 339 1303 0 288 338 289 0 +338 .026 -.006
3 0 .026 -.0082 0 .0063 .0082 141 340 339 340 340 338 16 288 781 0 ?341 276 337
 339 0 0 1 30 289 1302 0 276 339 342 0 +.0265 0 0 0 -1 0 30 342 1301 0 1 289 343
 344 +.026 0 0 0 -1 0 133 343 1300 0 287 342 345 0 +342 .026 -3e-4 0 .026 -.0022
 0 3e-4 .0022 141 344 343 344 344 342 16 287 789 0 ?346 347 276 343 0 0 1 30 345
 1299 0 348 343 349 0 +0 -.0063 -.002 1 0 0 16 348 831 0 ?236 350 351 345 0 0 1
 30 349 1298 0 350 345 352 0 +.026 0 -.002 0 -1 0 16 350 833 0 ?353 354 348 349
 0 0 1 30 352 1297 0 354 349 355 0 +0 -.0082 -.002 1 0 0 16 354 850 0 ?233 356 3
50 352 0 0 1 30 355 1296 0 356 352 357 0 +0 -3e-4 -.002 1 0 0 16 356 825 0 ?230
 358 354 355 0 0 1 30 357 1295 0 358 355 359 0 +.026 0 -.002 0 -1 0 16 358 827 0
 ?360 361 356 357 0 0 1 30 359 1294 0 361 357 362 0 +0 -.0022 -.002 1 0 0 16 361
 852 0 ?227 363 358 359 0 0 1 30 362 1293 0 363 359 364 0 +0 -.0123 -.002 1 0 0
 16 363 837 0 ?224 365 361 362 0 0 1 30 364 1292 0 365 362 366 0 +.026 0 -.002 0
 -1 0 16 365 839 0 ?367 368 363 364 0 0 1 30 366 1291 0 368 364 369 0 +0 -.0142
 -.002 1 0 0 16 368 848 0 ?221 370 365 366 0 0 1 30 369 1290 0 370 366 371 0 +.0
32 0 -.002 0 -1 0 16 370 855 0 ?372 373 368 369 0 0 1 30 371 1287 0 374 369 375
 0 +.032 -.0205 .0046 0 0 -1 16 374 822 0 ?376 377 378 371 0 0 1 30 375 1286 0 3
77 371 379 0 +.032 .006 .0046 0 0 -1 16 377 824 0 ?380 381 374 375 0 0 1 133 379
 1285 0 378 375 382 0 +382 .026 -.0142 -.002 .026 -.0142 0 0 .002 16 378 840 0 ?
383 374 384 379 0 0 1 30 382 1284 0 1 379 385 386 +.026 -.0142 -.002 0 0 1 30 38
5 1283 0 1 382 387 388 +0 -.0142 0 1 0 0 141 386 379 386 386 382 133 387 1282 0
 384 385 389 0 +389 .026 -.0123 -.002 .026 -.0123 0 0 .002 141 388 390 388 388 3
85 133 390 1223 0 351 391 392 0 +385 .01265 -.0142 0 .026 -.0142 0 .01265 .026 1
6 351 842 0 ?254 348 393 390 0 0 1 133 391 1224 0 393 394 390 0 +395 .01265 -.01
23 0 .026 -.0123 0 .01265 .026 30 392 1222 0 396 390 397 0 +.01265 -3e-4 -.002 0
 0 1 16 396 755 0 ?143 398 399 392 0 0 1 30 397 1219 0 400 392 401 0 +.01265 164
5818897832995e-33 0 -1301042606982604e-31 1 0 16 400 756 0 ?43 402 302 397 302 3
02 1 30 401 1218 0 403 397 404 0 +.01265 15e-5 -.02714479692316745 0 0 -1 16 403
 805 0 ?405 406 407 401 0 0 1 30 404 1213 0 398 401 408 0 +.01265 -.0063 -.002 0
 0 1 16 398 748 0 ?39 409 396 404 0 0 1 30 408 1212 0 399 404 410 0 +.01265 -.00
22 -.002 0 0 1 16 399 829 0 ?411 396 412 408 0 0 1 30 410 1211 0 41 408 413 0 +.
01265 1645818897832995e-33 0 -1301042606982604e-31 1 0 16 41 749 0 ?35 302 414 4
10 414 414 1 30 413 1210 0 406 410 415 0 +.01265 -.00585 -.02714479692316745 0 0
 -1 16 406 811 0 ?42 416 403 413 0 0 1 30 415 1209 0 417 413 418 0 +.01265 -.002
65 -.02714479692316745 0 0 1 16 417 783 0 ?293 419 420 415 0 0 1 30 418 1206 0 4
09 415 421 0 +.01265 -.0123 -.002 0 0 1 16 409 742 0 ?31 422 398 418 0 0 1 30 42
1 1205 0 412 418 423 0 +.01265 -.0082 -.002 0 0 1 16 412 835 0 ?424 399 419 421
 0 0 1 30 423 1204 0 33 421 425 0 +.01265 1645818897832995e-33 0 -13010426069826
04e-31 1 0 16 33 743 0 ?27 414 422 423 422 422 1 30 425 1203 0 416 423 426 0 +.0
1265 -.01185 -.02714479692316745 0 0 -1 16 416 817 0 ?34 427 406 425 0 0 1 30 42
6 1202 0 420 425 428 0 +.01265 -.00865 -.02714479692316745 0 0 1 16 420 775 0 ?4
29 417 427 426 0 0 1 30 428 1198 0 419 426 430 0 +.01265 -.0142 -.002 0 0 1 16 4
19 841 0 ?431 412 417 428 0 0 1 30 430 1195 0 427 428 432 0 +.01265 -.01465 -.02
714479692316745 0 0 1 16 427 767 0 ?433 420 416 430 0 0 1 30 432 297 0 25 430 26
 0 +.01631666666666665 -.01333333333333332 .01536666666666665 .577350269189626 .
577350269189626 .577350269189626 16 25 134 0 ?434 10 435 432 0 0 1 30 26 298 0 1
0 432 436 0 -.01081666666666666 .002333333333333335 .00986666666666667 -.5773502
69189626 .577350269189626 -.577350269189626 30 436 299 0 437 26 438 0 -.01248333
333333334 -.01168333333333332 .00836666666666667 -.577350269189626 .577350269189
626 .577350269189626 16 437 138 0 ?439 435 440 436 0 0 1 30 438 300 0 435 436 44
1 0 +.0172 -.0101 .00365 -.577350269189626 -.577350269189626 .577350269189626 16
 435 136 0 ?442 25 437 438 0 0 1 30 441 301 0 443 438 444 0 -.01248333333333332
 -.00568333333333333 .00836666666666667 -.577350269189626 .577350269189626 .5773
50269189626 16 443 142 0 ?445 440 446 441 0 0 1 30 444 302 0 440 441 447 0 +.015
2 -.0061 .00565 -.577350269189626 -.577350269189626 .577350269189626 16 440 140
 0 ?448 437 443 444 0 0 1 30 447 303 0 449 444 450 0 -.01248333333333332 .000316
6666666666685 .00836666666666667 -.577350269189626 .577350269189626 .57735026918
9626 16 449 146 0 ?451 446 452 447 0 0 1 30 450 304 0 446 447 453 0 +.0132 -.002
1 .00765 -.577350269189626 -.577350269189626 .577350269189626 16 446 144 0 ?454
 443 449 450 0 0 1 30 453 305 0 455 450 456 0 +.00915 .004 .0082 -16365315811101
95e-31 1 0 16 455 220 0 ?128 457 458 453 0 0 1 30 456 306 0 459 453 460 0 +.0126
5 -.01465 .0082 1301042606982606e-31 -1 0 16 459 214 0 ?461 462 463 456 0 0 1 30
 460 307 0 462 456 464 0 +.01265 -.00865 .0082 867361737988404e-31 -1 0 16 462 2
12 0 ?465 466 459 460 0 0 1 30 464 308 0 466 460 467 0 +.01265 -.00265 .0082 130
1042606982604e-31 -1 0 16 466 210 0 ?468 469 462 464 0 0 1 30 467 309 0 470 464
 471 0 +.01215 15e-5 .0087 -1301042606982604e-31 1 0 16 470 206 0 ?118 472 469 4
67 0 0 1 30 471 310 0 473 467 474 0 +.01215 -.00585 .0087 -867361737988404e-31 1
 0 16 473 200 0 ?112 475 476 471 0 0 1 30 474 311 0 477 471 478 0 +.01215 -.0118
5 .0087 -1301042606982606e-31 1 0 16 477 194 0 ?106 479 480 474 0 0 1 30 478 312
 0 481 474 482 0 +.00965 -.0205 .0087 1636531581110195e-31 -1 0 16 481 186 0 ?10
0 483 484 478 0 0 1 30 482 313 0 485 478 486 0 +.01048333333333332 .002666666666
66667 .00593333333333333 .577350269189626 -.577350269189626 .577350269189626 16
 485 164 0 ?487 488 20 482 0 0 1 30 486 314 0 483 482 489 0 +.00715 .006 .0026 -
1636531581110195e-31 1 0 16 483 184 0 ?94 490 481 486 0 0 1 30 489 315 0 491 486
 492 0 +.00915 -.0205 .0046 1636531581110195e-31 -1 0 16 491 178 0 ?493 494 495
 489 0 0 1 30 492 316 0 494 489 496 0 +.00915 -.0205 .0046 -.707106781186548 0 -
.707106781186548 16 494 176 0 ?88 497 491 492 0 0 1 30 496 317 0 497 492 498 0 +
.00715 .006 .0046 0 0 -1 16 497 174 0 ?82 499 494 496 0 0 1 30 498 318 0 499 496
 500 0 +.00715 -.0205 .0046 0 0 -1 16 499 172 0 ?85 501 497 498 0 0 1 30 500 319
 0 502 498 503 0 +.00715 725699472998552e-33 -.002 1636531581110195e-31 -1 0 16
 502 168 0 ?504 20 501 500 0 0 1 30 503 320 0 488 500 505 0 +.00915 -.0205 .0087
 0 0 -1 16 488 150 0 ?79 452 485 503 0 0 1 30 505 321 0 452 503 506 0 +.00915 .0
04 .0087 0 0 -1 16 452 148 0 ?507 449 488 505 0 0 1 30 506 397 0 402 505 508 0 +
.01265 164256629131554e-32 -.002 -1301042606982604e-31 1 0 16 402 594 0 ?61 509
 400 506 509 458 1 30 508 399 0 457 506 510 0 +.00915 -.0205 .0082 -1 0 0 16 457
 218 0 ?131 463 455 508 0 0 1 30 510 400 0 463 508 511 0 +.04315 .004 .0082 1 0
 0 16 463 216 0 ?158 459 457 510 0 0 1 30 511 401 0 469 510 512 0 +.03965 65e-5
 .0087 1 0 0 16 469 208 0 ?179 470 466 511 0 0 1 30 512 402 0 472 511 513 0 +.01
265 -.00315 .0087 -1 0 0 16 472 204 0 ?115 476 470 512 0 0 1 30 513 403 0 476 51
2 514 0 +.03965 -.00535 .0087 1 0 0 16 476 202 0 ?185 473 472 513 0 0 1 30 514 4
04 0 475 513 515 0 +.01265 -.00915 .0087 -1 0 0 16 475 198 0 ?109 480 473 514 0
 0 1 30 515 405 0 480 514 516 0 +.03965 -.01135 .0087 1 0 0 16 480 196 0 ?191 47
7 475 515 0 0 1 30 516 406 0 479 515 517 0 +.01265 -.01515 .0087 -1 0 0 16 479 1
92 0 ?103 518 477 516 0 0 1 30 517 407 0 518 516 519 0 +.00915 .0035 .0087 -1 0
 0 16 518 190 0 ?97 484 479 517 0 0 1 30 519 408 0 484 517 520 0 +.04315 -.02 .0
087 1 0 0 16 484 188 0 ?200 481 518 519 0 0 1 30 520 409 0 490 519 521 0 +.01315
 .006 .0026 1 0 0 16 490 182 0 ?209 495 483 520 0 0 1 30 521 410 0 495 520 21 0
 +.01315 .004 .0046 -1 0 0 16 495 180 0 ?91 491 490 521 0 0 1 30 21 411 0 501 52
1 7 0 +.01315 -.0205 -.002 1 0 0 16 501 170 0 ?215 502 499 21 0 0 1 17 215 0 522
 523 85 213 524 501 0 376 +15 522 75 0 215 525 0 17 523 0 522 526 215 210 376 37
4 0 0 -17 85 0 522 215 88 83 527 499 0 504 +17 524 0 528 529 372 83 215 501 0 0
 -17 376 0 530 531 532 213 523 374 0 372 +15 530 1090 0 533 534 0 17 531 0 530 5
33 376 216 372 370 0 0 -17 532 0 530 376 533 210 535 381 0 523 +17 372 0 528 524
 218 213 531 370 0 0 +15 528 113 0 372 18 0 17 218 0 528 372 529 216 536 20 0 38
0 +17 529 0 528 218 524 80 504 502 0 0 -17 536 0 537 538 380 80 218 20 0 529 -16
 20 166 0 ?218 485 502 7 0 0 1 17 380 0 537 536 209 216 533 377 0 531 +15 537 30
 0 209 539 0 17 209 0 537 380 538 207 540 490 0 533 +17 533 0 530 532 531 207 38
0 377 0 541 -17 541 0 542 540 203 207 543 347 0 535 -15 542 39 0 203 544 0 17 54
0 0 542 487 541 92 209 490 0 0 -17 203 0 542 541 487 201 91 495 0 545 -17 543 0
 546 547 535 201 541 347 0 548 +16 347 765 0 ?543 549 287 550 0 0 1 17 535 0 546
 543 212 207 532 381 0 0 -15 546 960 0 543 551 0 17 212 0 546 535 547 210 526 55
2 0 532 -16 381 821 0 ?532 552 377 553 0 0 1 16 552 846 0 ?526 554 381 555 0 0 1
 30 553 1267 0 381 556 555 0 +.032 0 .0026 0 -1 0 30 556 1268 0 1 557 553 558 +0
 -.0063 0 1 0 0 30 555 1266 0 552 553 559 0 -.032 -.0205 .0026 .707106781186548
 0 -.707106781186548 30 559 1264 0 554 555 550 0 +.03 0 .0046 0 1 0 16 554 764 0
 ?548 560 552 559 0 0 1 30 550 1262 0 347 559 561 0 -.02133333333333335 -.004666
66666666667 .01326666666666666 .577350269189626 .577350269189626 -.5773502691896
26 30 561 1260 0 560 550 562 0 +.0295 .004 .0087 0 1 0 16 560 791 0 ?563 564 554
 561 0 0 1 30 562 1256 0 564 561 565 0 +.027 -.01465 .0087 0 -1 0 16 564 800 0 ?
566 567 560 562 0 0 1 30 565 1253 0 567 562 568 0 +.027 -.00865 .0087 0 -1 0 16
 567 797 0 ?569 570 564 565 0 0 1 30 568 1250 0 570 565 571 0 +.027 -.00265 .008
7 0 -1 0 16 570 794 0 ?572 573 567 568 0 0 1 30 571 1249 0 573 568 574 0 +.0265
 15e-5 .0082 0 1 0 16 573 786 0 ?279 575 570 571 0 0 1 30 574 1248 0 575 571 576
 0 +-5e-4 15e-5 .0082 -1 0 0 16 575 804 0 ?577 296 573 574 0 0 1 30 576 1247 0 2
96 574 578 0 +.0265 -.00265 .0082 1 0 0 16 296 784 0 ?176 579 575 576 0 0 1 30 5
78 1246 0 579 576 580 0 +.0265 -.00585 .0082 0 1 0 16 579 778 0 ?581 582 296 578
 0 0 1 30 580 1245 0 582 578 583 0 +-5e-4 -.00585 .0082 -1 0 0 16 582 810 0 ?584
 585 579 580 0 0 1 30 583 1244 0 585 580 586 0 +.0265 -.00865 .0082 1 0 0 16 585
 776 0 ?170 587 582 583 0 0 1 30 586 1243 0 587 583 588 0 +.0265 -.01185 .0082 0
 1 0 16 587 770 0 ?589 590 585 586 0 0 1 30 588 1242 0 590 586 591 0 +-5e-4 -.01
185 .0082 -1 0 0 16 590 816 0 ?592 593 587 588 0 0 1 30 591 1241 0 593 588 594 0
 +.0265 -.01465 .0082 1 0 0 16 593 768 0 ?164 407 590 591 0 0 1 30 594 1239 0 40
7 591 595 0 +.03 -.0205 .0082 0 -1 0 16 407 762 0 ?596 403 593 594 0 0 1 30 595
 1237 0 597 594 598 0 -.02595 -.0021 .00765 -.577350269189626 .577350269189626 -
.577350269189626 16 597 803 0 ?599 600 601 595 0 0 1 30 598 1236 0 600 595 602 0
 -.02678333333333335 .0004333333333333335 .00848333333333333 .577350269189626 .5
77350269189626 .577350269189626 16 600 802 0 ?173 603 597 598 0 0 1 30 602 1235
 0 604 598 605 0 -.02395 -.0061 .00565 -.577350269189626 .577350269189626 -.5773
50269189626 16 604 809 0 ?606 601 607 602 0 0 1 30 605 1234 0 601 602 608 0 -.02
878333333333335 -.003566666666666665 .01048333333333332 .577350269189626 .577350
269189626 .577350269189626 16 601 808 0 ?167 597 604 605 0 0 1 30 608 1233 0 609
 605 610 0 -.02195 -.0101 .00365 -.577350269189626 .577350269189626 -.5773502691
89626 16 609 815 0 ?611 607 612 608 0 0 1 30 610 1232 0 607 608 613 0 -.03078333
333333335 -.00756666666666667 .01248333333333332 .577350269189626 .5773502691896
26 .577350269189626 16 607 814 0 ?161 604 609 610 0 0 1 30 613 1231 0 614 610 61
5 0 -.02833333333333335 .00233333333333333 .00986666666666667 -.577350269189626
 -.577350269189626 .577350269189626 16 614 856 0 ?616 612 0 613 0 0 1 30 615 123
0 0 612 613 617 0 -.01966666666666665 -.01016666666666666 .01853333333333335 -.5
77350269189626 .577350269189626 .577350269189626 16 612 820 0 ?618 609 614 615 0
 0 1 133 617 1228 0 619 615 620 0 +621 .01265 -3e-4 0 .026 -3e-4 0 .01265 .026 1
6 619 788 0 ?239 622 623 617 0 0 1 133 620 1227 0 622 617 624 0 +625 .01265 -.00
22 0 .026 -.0022 0 .01265 .026 30 621 1274 0 1 626 627 628 +0 -3e-4 0 1 0 0 30 6
26 1275 0 1 629 621 630 +.026 -3e-4 -.002 0 0 1 133 627 1273 0 631 621 632 0 +63
2 .026 -.0082 -.002 .026 -.0082 0 0 .002 141 628 617 628 628 621 16 631 834 0 ?6
33 634 373 627 0 0 1 30 632 1272 0 1 627 635 636 +.026 -.0082 -.002 0 0 1 30 635
 1271 0 1 632 637 638 +0 -.0082 0 1 0 0 141 636 627 636 636 632 133 637 1270 0 3
73 635 557 0 +557 .026 -.0063 -.002 .026 -.0063 0 0 .002 141 638 394 638 638 635
 133 394 1225 0 623 624 391 0 +635 .01265 -.0082 0 .026 -.0082 0 .01265 .026 16
 623 836 0 ?248 619 549 394 0 0 1 133 624 1226 0 549 620 394 0 +556 .01265 -.006
3 0 .026 -.0063 0 .01265 .026 16 549 780 0 ?245 623 347 624 0 0 1 17 245 0 639 3
41 40 243 640 549 0 641 +15 639 1014 0 642 643 0 17 341 0 639 644 245 246 641 28
8 0 633 +17 40 0 639 245 645 49 35 41 0 640 -17 640 0 646 647 648 49 245 549 0 0
 -17 641 0 649 650 633 243 341 288 0 648 -15 649 1115 0 641 651 0 17 650 0 649 3
53 641 234 648 373 0 652 -17 633 0 649 641 353 246 653 631 0 0 +17 648 0 646 640
 236 243 650 373 0 0 +15 646 1109 0 647 654 0 17 236 0 646 648 647 234 655 348 0
 650 +16 373 832 0 ?648 631 370 637 0 0 1 17 647 0 646 236 640 65 39 398 0 655 -
17 655 0 656 657 652 65 236 348 0 0 -15 656 1410 0 657 18 658 17 657 0 656 233 6
55 68 67 509 0 659 -17 652 0 656 655 233 234 353 350 0 0 -17 233 0 656 652 657 2
31 659 354 0 653 +17 353 0 649 633 650 231 652 350 0 0 +17 659 0 660 424 653 68
 233 354 0 0 -17 653 0 660 659 248 231 633 631 0 353 -15 660 1118 0 659 661 0 17
 248 0 660 653 424 246 644 623 0 341 +17 424 0 660 248 659 51 70 412 0 644 +17 6
44 0 639 642 341 51 248 623 0 0 -17 642 0 639 662 644 147 53 414 0 318 -17 662 0
 639 663 642 264 318 314 0 0 -17 53 0 37 70 149 51 642 414 0 424 +16 414 741 0 ?
53 41 33 410 41 41 1 17 318 0 664 429 665 147 662 314 0 0 +15 664 991 0 318 666
 0 17 429 0 664 170 318 135 149 420 0 667 +17 665 0 664 318 170 264 306 303 0 66
2 -17 170 0 664 665 429 168 667 585 0 306 +17 306 0 668 581 266 168 665 303 0 66
9 +15 668 996 0 306 670 0 17 581 0 668 671 306 165 669 579 0 315 +17 266 0 668 3
06 671 264 663 337 0 665 +17 669 0 672 606 167 168 581 579 0 673 -15 672 1060 0
 167 674 0 17 606 0 672 675 669 186 673 604 0 569 +17 167 0 672 669 675 165 676
 601 0 677 +17 673 0 678 667 188 168 606 604 0 0 -15 678 91 0 188 679 0 17 667 0
 678 448 673 135 170 585 0 0 -17 188 0 678 673 448 186 109 475 0 606 -17 448 0 6
78 188 667 107 137 440 0 0 +17 109 0 680 112 569 107 188 475 0 681 +15 680 1411
 0 569 682 683 17 112 0 680 185 109 110 681 473 0 684 +17 569 0 680 109 185 186
 675 567 0 0 +17 681 0 685 137 684 107 112 473 0 448 -15 685 47 0 137 686 0 17 1
37 0 685 687 681 135 448 440 0 465 -17 684 0 685 681 687 110 445 443 0 688 -17 6
87 0 685 684 137 122 465 462 0 445 -17 445 0 689 677 688 122 684 443 0 584 +17 6
88 0 689 445 676 110 185 476 0 0 -15 689 95 0 445 690 0 17 676 0 689 688 677 183
 167 601 0 675 -17 185 0 680 569 112 183 688 476 0 676 +17 677 0 689 676 445 165
 584 582 0 581 -17 675 0 672 167 606 183 569 567 0 0 -17 584 0 691 42 315 122 67
7 582 0 0 +15 691 1064 0 584 692 0 17 42 0 691 263 584 28 38 406 0 645 +17 315 0
 691 584 263 165 671 307 0 0 +17 263 0 691 315 42 261 645 312 0 663 +17 671 0 66
8 266 581 261 315 307 0 0 -17 645 0 639 40 663 28 263 312 0 0 -17 663 0 639 645
 662 261 266 337 0 671 -17 38 0 37 465 35 122 42 406 0 687 -15 37 720 0 149 693
 0 17 465 0 37 149 38 135 687 462 0 429 +17 149 0 37 53 465 147 429 420 0 642 -1
4 255 693 676 694 ?695 16 37 5 696 +695 16 695 16 23 81 1 694 1893 697 693 698 0
 0 699 700 14 695 661 699 ?701 693 702 5 696 +16 693 701 693 23 14 16 706 703 ?6
93 0 29 5 696 +693 695 693 0 23 50 696 364 0 16 704 705 0 +.01265 15e-5 .0082 1
 1301042606982604e-31 0 -1301042606982604e-31 1 0 13 23 8 0 0 0 0 0 0 9 16 50 70
4 296 0 706 707 696 0 +.00915 1053005789220592e-33 .0087 1 1636531581110195e-31
 0 -1636531581110195e-31 1 0 50 705 365 0 539 696 708 0 +.01315 .006 .0046 0 1 0
 0 0 1 14 539 26 709 ?706 710 537 5 705 +0 0 706 710 23 50 708 366 0 544 705 711
 0 -.01315 .006 .0026 0 -.707106781186548 -.707106781186548 1 0 0 14 544 36 712
 ?713 706 542 5 708 +0 0 713 706 23 50 711 367 0 714 708 715 0 +.01315 .004 .008
7 0 -1 0 0 0 -1 14 714 56 716 ?682 717 718 5 711 -0 0 682 717 23 50 715 368 0 68
2 711 719 0 +.01315 170761842166467e-32 .0087 0 0 1 1 0 0 14 682 61 720 ?721 714
 722 5 715 +0 0 721 714 23 50 719 369 0 721 715 723 0 +.01315 .0035 .0087 0 .707
106781186548 .707106781186548 1 0 0 14 721 65 724 ?525 682 725 5 719 +0 0 525 68
2 23 50 723 370 0 525 719 726 0 +.01315 -.0205 .0046 0 1 0 0 0 1 14 525 69 727 ?
728 721 522 5 723 -0 0 728 721 23 50 726 371 0 728 723 729 0 +.01315 -.02 .0087
 0 -.707106781186548 .707106781186548 -1 0 0 14 728 76 730 ?731 525 732 5 726 +0
 0 731 525 23 50 729 372 0 731 726 733 0 +.01315 -.01515 .0087 0 .70710678118654
8 .707106781186548 1 0 0 14 731 80 734 ?735 728 736 5 729 +0 0 735 728 23 50 733
 373 0 735 729 737 0 +.01315 -.01135 .0087 0 -.707106781186548 .707106781186548
 -1 0 0 14 735 84 738 ?679 731 739 5 733 +0 0 679 731 23 50 737 374 0 679 733 74
0 0 +.01315 -.00915 .0087 0 .707106781186548 .707106781186548 1 0 0 14 679 88 74
1 ?690 735 678 5 737 +0 0 690 735 23 50 740 375 0 690 737 742 0 +.01315 -.00535
 .0087 0 -.707106781186548 .707106781186548 -1 0 0 14 690 92 743 ?744 679 689 5
 740 +0 0 744 679 23 50 742 376 0 744 740 19 0 +.01315 -.00315 .0087 0 .70710678
1186548 .707106781186548 1 0 0 14 744 96 745 ?746 690 747 5 742 +0 0 746 690 23
 50 19 377 0 746 742 6 0 +.01315 65e-5 .0087 0 -.707106781186548 .70710678118654
8 -1 0 0 14 746 100 748 ?18 744 749 5 19 +0 0 18 744 23 81 1 748 1908 697 746 75
0 0 745 751 752 14 18 104 751 ?753 746 754 5 6 -0 0 755 746 23 15 749 103 0 451
 746 0 17 451 0 749 756 757 119 758 449 0 577 +17 756 0 749 759 451 171 577 575
 0 279 -17 757 0 749 451 759 116 179 469 0 0 -17 758 0 760 761 762 116 451 449 0
 757 -17 577 0 763 405 282 119 756 575 0 0 +15 763 1051 0 577 764 0 17 405 0 763
 269 577 36 121 403 0 285 +17 282 0 763 577 269 171 274 283 0 0 +17 269 0 763 28
2 405 267 285 304 0 275 +16 283 807 0 ?282 304 280 311 0 0 1 30 311 1319 0 283 3
09 298 0 +.0265 15e-5 -.02714479692316745 0 0 1 30 309 1320 0 304 765 311 0 +-5e
-4 15e-5 0 1 0 0 30 765 1321 0 297 766 309 0 +.03 -.0205 .0087 0 0 -1 16 297 763
 0 ?206 280 603 765 0 0 1 30 766 1322 0 603 0 765 0 +.03 .004 .0087 0 0 -1 16 60
3 761 0 ?545 297 600 766 0 0 1 17 545 0 718 91 158 201 767 603 0 543 +15 718 60
 0 158 714 0 17 91 0 718 768 545 89 203 495 0 507 +17 158 0 718 545 768 156 769
 463 0 616 +17 767 0 770 596 548 156 545 603 0 0 -15 770 957 0 767 753 0 17 596
 0 770 206 767 153 771 407 0 772 +17 548 0 770 767 206 201 547 554 0 0 +17 206 0
 770 548 596 204 772 297 0 526 +17 547 0 546 212 543 204 548 554 0 0 -17 772 0 5
22 131 526 153 206 297 0 618 -17 526 0 522 772 523 204 212 552 0 547 +17 131 0 5
22 79 772 129 155 457 0 773 +17 618 0 774 771 775 153 776 612 0 0 +15 774 1086 0
 618 777 0 17 771 0 774 778 618 156 596 407 0 767 -17 775 0 774 618 778 198 563
 560 0 0 -17 776 0 732 779 155 198 618 612 0 775 -15 732 79 0 155 728 0 17 779 0
 732 780 776 98 200 484 0 434 -17 155 0 732 776 780 153 131 457 0 596 -17 780 0
 732 155 779 129 434 25 0 781 -17 434 0 782 783 781 98 780 25 0 0 +17 781 0 782
 434 784 129 128 455 0 0 -15 782 55 0 434 717 0 17 784 0 782 781 783 126 24 10 0
 0 -17 128 0 785 507 773 126 781 455 0 768 +15 785 35 0 773 706 0 17 507 0 785 4
93 128 89 768 452 0 786 +17 773 0 785 128 493 129 79 488 0 780 -17 768 0 718 158
 91 126 507 452 0 769 -17 769 0 725 24 616 126 158 463 0 784 -15 725 68 0 197 72
1 0 17 24 0 725 197 769 95 784 10 0 783 +17 616 0 725 769 197 156 778 614 0 771
 +17 197 0 725 616 24 195 97 518 0 563 -17 778 0 774 775 771 195 616 614 0 0 -17
 97 0 787 100 563 95 197 518 0 24 +17 563 0 787 97 200 195 775 560 0 778 +15 787
 64 0 200 682 0 17 200 0 787 563 100 198 779 484 0 776 +17 100 0 787 200 97 98 7
83 481 0 779 +17 783 0 782 784 434 95 100 481 0 0 -17 493 0 785 773 507 77 786 4
91 0 0 +17 79 0 522 88 131 77 773 488 0 788 +17 88 0 522 85 79 86 788 494 0 527
 +17 788 0 789 786 790 77 88 494 0 493 -15 789 25 0 788 710 0 17 786 0 789 791 7
88 89 493 491 0 487 -17 790 0 789 788 791 86 94 483 0 0 -17 791 0 789 790 786 92
 487 485 0 540 -17 94 0 792 82 527 92 790 483 0 538 +15 792 21 0 527 701 0 17 82
 0 792 504 94 80 538 497 0 536 +17 527 0 792 94 504 86 85 499 0 790 -17 538 0 53
7 209 536 92 82 497 0 791 -17 504 0 792 527 82 83 529 502 0 524 +14 701 17 793 ?
710 695 792 5 707 -0 0 710 695 23 81 1 793 1910 697 701 794 0 751 795 796 14 710
 22 795 ?539 701 789 5 797 +0 0 539 701 23 50 707 292 0 701 797 704 0 +.00715 72
5699472998552e-33 .0046 1 1636531581110195e-31 0 -1636531581110195e-31 1 0 50 79
7 291 0 710 798 707 0 +.00915 1053005789220592e-33 .0046 -.707106781186548 -1157
202578628962e-31 .707106781186548 -1636531581110195e-31 1 0 50 798 290 0 713 799
 797 0 +.01215 157751416096641e-32 .0087 .707106781186548 919976050010024e-31 .7
07106781186548 1301042606982604e-31 -1 0 14 713 40 800 ?686 544 760 5 798 +0 0 6
86 544 23 50 799 289 0 686 801 798 0 +.01215 162088224786583e-32 .0087 .70710678
1186548 61331736667335e-30 .707106781186547 867361737988404e-31 -1 0 14 686 44 8
02 ?803 713 685 5 799 +0 0 803 713 23 50 801 288 0 803 804 799 0 +.01215 1577514
16096641e-32 .0087 .707106781186547 919976050010025e-31 .707106781186548 1301042
606982606e-31 -1 0 14 803 48 805 ?717 686 806 5 801 +0 0 717 686 23 50 804 287 0
 717 807 801 0 +.00965 11348323682761e-31 .0087 -.707106781186548 -1157202578628
962e-31 .707106781186548 -1636531581110195e-31 1 0 14 717 52 808 ?714 803 782 5
 804 +0 0 714 803 23 50 807 1156 0 777 809 804 0 +.0295 0 .0087 .707106781186548
 0 .707106781186548 0 -1 0 14 777 1084 810 ?534 811 774 5 807 +0 0 811 534 23 50
 809 1160 0 812 813 807 0 +.027 0 .0087 -.707106781186548 0 .707106781186548 0 1
 0 14 812 1071 814 ?811 692 815 5 809 +0 0 692 811 23 50 813 1163 0 674 816 809
 0 +.027 0 .0087 -.707106781186548 0 .707106781186548 0 1 0 14 674 1058 817 ?692
 764 672 5 813 +0 0 764 692 23 50 816 1166 0 818 819 813 0 +.027 0 .0087 -.70710
6781186548 0 .707106781186548 0 1 0 14 818 1045 820 ?764 300 821 5 816 +0 0 300
 764 23 50 819 1168 0 551 822 816 0 -.032 0 .0026 -.707106781186548 0 -.70710678
1186548 0 -1 0 14 551 958 823 ?824 753 546 5 819 +0 0 753 824 23 50 822 1169 0 5
34 825 819 0 +.032 0 .0046 1 0 0 0 0 -1 14 534 1087 826 ?827 777 530 5 822 +0 0
 777 827 23 50 825 1172 0 651 828 822 0 +.026 0 .0046 1 0 0 0 0 -1 14 651 1110 8
29 ?661 654 649 5 825 -0 0 654 661 23 50 828 1173 0 830 831 825 0 +.026 0 .0046
 1 0 0 0 0 -1 14 830 1098 832 ?833 827 834 5 828 -0 0 827 833 23 50 831 1174 0 8
35 836 828 0 +.026 0 .0046 1 0 0 0 0 -1 14 835 1122 837 ?755 838 839 5 831 -0 0
 838 755 23 50 836 1175 0 654 840 831 0 +0 -.0063 -.002 0 -1 0 0 0 -1 14 654 110
7 841 ?651 833 646 5 836 +0 0 833 651 23 50 840 1176 0 661 842 836 0 +0 -.0082 -
.002 0 -1 0 0 0 -1 14 661 1116 843 ?838 651 660 5 840 -0 0 651 838 23 50 842 117
7 0 827 844 840 0 +0 -3e-4 -.002 0 -1 0 0 0 -1 14 827 1095 845 ?830 534 846 5 84
2 +0 0 534 830 23 50 844 1178 0 833 847 842 0 +0 -.0022 -.002 0 -1 0 0 0 -1 14 8
33 1104 848 ?654 830 849 5 844 -0 0 830 654 23 50 847 1179 0 838 850 844 0 +0 -.
0123 -.002 0 -1 0 0 0 -1 14 838 1119 851 ?835 661 852 5 847 +0 0 661 835 23 50 8
50 1180 0 755 853 847 0 +0 -.0142 -.002 0 -1 0 0 0 -1 14 755 1128 854 ?0 835 855
 5 850 -0 0 835 18 23 50 853 1181 0 643 856 850 0 +0 0 0 0 0 1 1 0 0 14 643 997
 857 ?292 670 639 5 853 +300 858 670 292 23 50 856 1183 0 278 859 853 0 +.0265 0
 -.0271154937259125 1 0 0 0 0 -1 14 278 1019 860 ?300 292 272 5 856 -0 0 292 300
 23 50 859 1184 0 670 861 856 0 +.0265 -.006 -.0271154937259125 1 0 0 0 0 -1 14
 670 992 862 ?643 666 668 5 859 -0 0 666 643 23 50 861 1185 0 863 864 859 0 +.02
65 -.012 -.0271154937259125 1 0 0 0 0 -1 14 863 965 865 ?858 824 866 5 861 -0 0
 824 858 23 50 864 1186 0 824 867 861 0 +-5e-4 -.01465 -.02714479692316745 0 -1
 0 0 0 -1 14 824 961 868 ?863 551 869 5 864 -0 0 551 863 23 50 867 1187 0 811 87
0 864 0 +-5e-4 -.01185 -.02714479692316745 0 1 0 0 0 1 14 811 1074 871 ?777 812
 872 5 867 -0 0 812 777 23 50 870 1188 0 666 873 867 0 +-5e-4 -.00865 -.02714479
692316745 0 -1 0 0 0 -1 14 666 988 874 ?670 858 664 5 870 -0 0 858 670 23 50 873
 1189 0 692 875 870 0 +-5e-4 -.00585 -.02714479692316745 0 1 0 0 0 1 14 692 1061
 876 ?812 674 691 5 873 -0 0 674 812 23 50 875 1190 0 292 877 873 0 +-5e-4 -.002
65 -.02714479692316745 0 -1 0 0 0 -1 14 292 1015 878 ?278 643 290 5 875 -0 0 643
 278 23 50 877 1191 0 764 879 875 0 +-5e-4 15e-5 -.02714479692316745 0 1 0 0 0 1
 14 764 1048 880 ?674 818 763 5 877 -0 0 818 674 23 50 879 1192 0 753 0 877 0 +.
03 0 .0087 -1 0 0 0 0 1 14 753 954 881 ?551 18 770 5 879 -0 0 0 551 23 81 1 881
 1941 697 753 882 0 880 883 884 80 255 1 697 885 886 9000 1 1 1 1 1 1 1 1 0 FFFF
TFTFFFFFFF1 81 1 882 1644 887 753 888 881 889 890 891 81 1 880 1940 697 764 892
 0 878 881 893 81 1 883 1942 697 858 894 0 881 895 896 82 255 1 884 -1482489704
 14 858 970 883 ?666 863 897 5 853 +643 300 863 666 23 81 1 894 1648 887 858 898
 883 899 900 901 81 1 895 1943 697 300 902 0 883 903 904 82 1 896 -1481441128 14
 300 1024 895 ?818 278 284 5 853 +858 643 278 818 23 81 1 902 1654 887 300 905 8
95 906 907 908 81 1 903 1944 697 706 909 0 895 0 910 82 1 904 -1474821992 14 706
 31 903 ?544 539 785 5 704 -0 0 544 539 23 81 1 909 1626 887 706 0 903 911 912 9
13 82 1 910 1484193943 80 1 887 0 914 8001 0 0 0 0 3 5 0 0 0 FFFFTFTFFFFFFF2 81
 1 911 1625 887 539 915 709 916 909 917 81 1 912 1627 887 544 918 712 909 919 92
0 83 255 3 913 .792156862745098 .819607843137255 .933333333333333 81 2 918 1427
 921 544 0 912 915 922 0 0 81 1 712 1897 697 544 912 0 709 716 923 81 1 919 1628
 887 713 922 800 912 924 925 83 3 920 .792156862745098 .819607843137255 .9333333
33333333 81 2 922 1429 921 713 0 919 918 926 0 0 81 1 800 1912 697 713 919 0 795
 802 927 81 1 924 1629 887 686 926 802 919 928 929 83 3 925 .792156862745098 .81
9607843137255 .933333333333333 81 2 926 1431 921 686 0 924 922 930 0 0 81 1 802
 1913 697 686 924 0 800 805 931 81 1 928 1630 887 803 930 805 924 932 933 83 3 9
29 .792156862745098 .819607843137255 .933333333333333 81 2 930 1433 921 803 0 92
8 926 934 0 0 81 1 805 1914 697 803 928 0 802 808 935 81 1 932 1631 887 717 0 80
8 928 936 937 83 3 933 .792156862745098 .819607843137255 .933333333333333 81 1 8
08 1915 697 717 932 0 805 810 938 81 1 936 1632 887 714 934 716 932 939 940 83 3
 937 .792156862745098 .819607843137255 .933333333333333 81 2 934 1435 921 714 0
 936 930 941 0 0 81 1 716 1898 697 714 936 0 712 720 942 81 1 939 1633 887 682 9
41 720 936 943 944 83 3 940 .792156862745098 .819607843137255 .933333333333333 8
1 2 941 1437 921 682 0 939 934 945 0 0 81 1 720 1899 697 682 939 0 716 724 946 8
1 1 943 1634 887 721 945 724 939 947 948 83 3 944 .792156862745098 .819607843137
255 .933333333333333 81 2 945 1439 921 721 0 943 941 949 0 0 81 1 724 1900 697 7
21 943 0 720 727 950 81 1 947 1635 887 525 949 727 943 951 952 83 3 948 .7921568
62745098 .819607843137255 .933333333333333 81 2 949 1441 921 525 0 947 945 953 0
 0 81 1 727 1901 697 525 947 0 724 730 954 81 1 951 1636 887 728 953 730 947 955
 956 83 3 952 .792156862745098 .819607843137255 .933333333333333 81 2 953 1443 9
21 728 0 951 949 957 0 0 81 1 730 1902 697 728 951 0 727 734 958 81 1 955 1637 8
87 731 957 734 951 959 960 83 3 956 .792156862745098 .819607843137255 .933333333
333333 81 2 957 1445 921 731 0 955 953 961 0 0 81 1 734 1903 697 731 955 0 730 7
38 962 81 1 959 1638 887 735 961 738 955 963 964 83 3 960 .792156862745098 .8196
07843137255 .933333333333333 81 2 961 1447 921 735 0 959 957 965 0 0 81 1 738 19
04 697 735 959 0 734 741 966 81 1 963 1639 887 679 965 741 959 967 968 83 3 964
 .792156862745098 .819607843137255 .933333333333333 81 2 965 1449 921 679 0 963
 961 969 0 0 81 1 741 1905 697 679 963 0 738 743 970 81 1 967 1640 887 690 969 7
43 963 971 972 83 3 968 .792156862745098 .819607843137255 .933333333333333 81 2
 969 1451 921 690 0 967 965 973 0 0 81 1 743 1906 697 690 967 0 741 745 974 81 1
 971 1641 887 744 973 745 967 750 975 83 3 972 .792156862745098 .819607843137255
 .933333333333333 81 2 973 1453 921 744 0 971 969 976 0 0 81 1 745 1907 697 744
 971 0 743 748 977 81 1 750 1642 887 746 976 748 971 889 978 83 3 975 .792156862
745098 .819607843137255 .933333333333333 81 2 976 1455 921 746 0 750 973 979 0 0
 81 1 889 1643 887 18 979 751 750 882 980 83 3 978 .792156862745098 .81960784313
7255 .933333333333333 81 2 979 1457 921 18 0 889 976 888 0 0 81 1 751 1909 697 1
8 889 0 748 793 981 83 3 980 .792156862745098 .819607843137255 .933333333333333
 82 1 981 -1428684648 80 2 921 982 983 9000 0 0 0 0 3 6 0 0 0 FFFFTFFFFFFFFF9 1
 81 2 888 1459 921 753 0 882 979 984 0 0 81 2 984 1461 921 551 0 890 888 985 0 0
 81 1 890 1645 887 551 984 823 882 986 987 81 2 985 1463 921 824 0 986 984 988 0
 0 81 1 986 1646 887 824 985 868 890 899 989 81 2 988 1465 921 863 0 899 985 898
 0 0 81 1 899 1647 887 863 988 865 986 894 990 81 2 898 1467 921 858 0 894 988 9
91 0 0 81 2 991 1469 921 666 0 900 898 992 0 0 81 1 900 1649 887 666 991 874 894
 993 994 81 2 992 1471 921 670 0 993 991 995 0 0 81 1 993 1650 887 670 992 862 9
00 996 997 81 2 995 1473 921 643 0 996 992 998 0 0 81 1 996 1651 887 643 995 857
 993 999 1000 81 2 998 1475 921 292 0 999 995 1001 0 0 81 1 999 1652 887 292 998
 878 996 906 1002 81 2 1001 1477 921 278 0 906 998 905 0 0 81 1 906 1653 887 278
 1001 860 999 902 1003 81 2 905 1479 921 300 0 902 1001 1004 0 0 81 2 1004 1481
 921 818 0 907 905 1005 0 0 81 1 907 1655 887 818 1004 820 902 892 1006 81 2 100
5 1483 921 764 0 892 1004 1007 0 0 81 1 892 1656 887 764 1005 880 907 1008 1009
 81 2 1007 1485 921 674 0 1008 1005 1010 0 0 81 1 1008 1657 887 674 1007 817 892
 1011 1012 81 2 1010 1487 921 692 0 1011 1007 1013 0 0 81 1 1011 1658 887 692 10
10 876 1008 1014 1015 81 2 1013 1489 921 812 0 1014 1010 1016 0 0 81 1 1014 1659
 887 812 1013 814 1011 1017 1018 81 2 1016 1491 921 811 0 1017 1013 1019 0 0 81
 1 1017 1660 887 811 1016 871 1014 1020 1021 81 2 1019 1493 921 777 0 1020 1016
 1022 0 0 81 1 1020 1661 887 777 1019 810 1017 1023 1024 81 2 1022 1495 921 534
 0 1023 1019 1025 0 0 81 1 1023 1662 887 534 1022 826 1020 1026 1027 81 2 1025 1
497 921 827 0 1026 1022 1028 0 0 81 1 1026 1663 887 827 1025 845 1023 1029 1030
 81 2 1028 1499 921 830 0 1029 1025 1031 0 0 81 1 1029 1664 887 830 1028 832 102
6 1032 1033 81 2 1031 1501 921 833 0 1032 1028 1034 0 0 81 1 1032 1665 887 833 1
031 848 1029 1035 1036 81 2 1034 1503 921 654 0 1035 1031 1037 0 0 81 1 1035 166
6 887 654 1034 841 1032 1038 1039 81 2 1037 1505 921 651 0 1038 1034 1040 0 0 81
 1 1038 1667 887 651 1037 829 1035 1041 1042 81 2 1040 1507 921 661 0 1041 1037
 1043 0 0 81 1 1041 1668 887 661 1040 843 1038 1044 1045 81 2 1043 1509 921 838
 0 1044 1040 1046 0 0 81 1 1044 1669 887 838 1043 851 1041 1047 1048 81 2 1046 1
511 921 835 0 1047 1043 1049 0 0 81 1 1047 1670 887 835 1046 837 1044 1050 1051
 81 2 1049 1513 921 755 0 1050 1046 0 0 0 81 1 1050 1671 887 755 1049 854 1047 0
 1052 81 1 854 1930 697 755 1050 0 851 857 1053 83 3 1052 .792156862745098 .8196
07843137255 .933333333333333 81 1 851 1929 697 838 1044 0 848 854 1054 81 1 857
 1931 697 643 996 0 854 860 1055 82 1 1053 -1470627688 81 1 860 1932 697 278 906
 0 857 862 1056 82 1 1055 -1474494312 81 1 862 1933 697 670 993 0 860 865 1057 8
2 1 1056 -1472724840 81 1 865 1934 697 863 899 0 862 868 1058 82 1 1057 -1481506
664 81 1 868 1935 697 824 986 0 865 871 1059 82 1 1058 -1496514408 81 1 871 1936
 697 811 1017 0 868 874 1060 82 1 1059 -1496645480 81 1 874 1937 697 666 900 0 8
71 876 1061 82 1 1060 -1487535976 81 1 876 1938 697 692 1011 0 874 878 1062 82 1
 1061 -1481703272 81 1 878 1939 697 292 999 0 876 880 1063 82 1 1062 -1481834344
 82 1 1063 -1481965416 81 1 848 1928 697 833 1032 0 845 851 1064 82 1 1054 -1477
181288 81 1 845 1927 697 827 1026 0 843 848 1065 82 1 1064 -1489436520 81 1 843
 1926 697 661 1041 0 841 845 1066 82 1 1065 -1489370984 81 1 841 1925 697 654 10
35 0 837 843 1067 82 1 1066 -1477312360 81 1 837 1924 697 835 1047 0 832 841 106
8 82 1 1067 -1476919144 81 1 832 1923 697 830 1029 0 829 837 1069 82 1 1068 -147
0365544 81 1 829 1922 697 651 1038 0 826 832 1070 82 1 1069 -1489567592 81 1 826
 1921 697 534 1023 0 823 829 1071 82 1 1070 -1489108840 81 1 823 1920 697 551 89
0 0 820 826 1072 82 1 1071 -1495072616 81 1 820 1919 697 818 907 0 817 823 1073
 82 1 1072 -1496448872 81 1 817 1918 697 674 1008 0 814 820 1074 82 1 1073 -1488
519016 81 1 814 1917 697 812 1014 0 810 817 1075 82 1 1074 -1488125800 81 1 810
 1916 697 777 1020 0 808 814 1076 82 1 1075 -1487732584 82 1 1076 -1495269224 83
 3 1051 .792156862745098 .819607843137255 .933333333333333 83 3 1048 .7921568627
45098 .819607843137255 .933333333333333 83 3 1045 .792156862745098 .819607843137
255 .933333333333333 83 3 1042 .792156862745098 .819607843137255 .93333333333333
3 83 3 1039 .792156862745098 .819607843137255 .933333333333333 83 3 1036 .792156
862745098 .819607843137255 .933333333333333 83 3 1033 .792156862745098 .81960784
3137255 .933333333333333 83 3 1030 .792156862745098 .819607843137255 .9333333333
33333 83 3 1027 .792156862745098 .819607843137255 .933333333333333 83 3 1024 .79
2156862745098 .819607843137255 .933333333333333 83 3 1021 .792156862745098 .8196
07843137255 .933333333333333 83 3 1018 .792156862745098 .819607843137255 .933333
333333333 83 3 1015 .792156862745098 .819607843137255 .933333333333333 83 3 1012
 .792156862745098 .819607843137255 .933333333333333 83 3 1009 .792156862745098 .
819607843137255 .933333333333333 83 3 1006 .792156862745098 .819607843137255 .93
3333333333333 83 3 1003 .792156862745098 .819607843137255 .933333333333333 83 3
 1002 .792156862745098 .819607843137255 .933333333333333 83 3 1000 .792156862745
098 .819607843137255 .933333333333333 83 3 997 .792156862745098 .819607843137255
 .933333333333333 83 3 994 .792156862745098 .819607843137255 .933333333333333 83
 3 990 .792156862745098 .819607843137255 .933333333333333 83 3 989 .792156862745
098 .819607843137255 .933333333333333 83 3 987 .792156862745098 .819607843137255
 .933333333333333 79 255 17 983 ATOM_FACE_ID_200182 1 977 -1432289128 82 1 974 -
1432420200 82 1 970 -1432223592 82 1 966 -1430323048 82 1 962 -1430454120 82 1 9
58 -1430585192 82 1 954 -1430716264 82 1 950 -1430847336 82 1 946 -1430978408 82
 1 942 -1431109480 82 1 938 1481506967 82 1 935 -1426521960 82 1 931 -1426325352
 81 1 795 1911 697 710 916 0 793 800 1077 82 1 927 -1426128744 81 1 916 1624 887
 710 0 795 794 911 1078 82 1 1077 1485701271 81 1 794 1623 887 701 0 793 1079 91
6 1080 83 3 1078 .792156862745098 .819607843137255 .933333333333333 81 1 1079 16
22 887 695 1081 699 698 794 1082 83 3 1080 .792156862745098 .819607843137255 .93
3333333333333 81 2 1081 1423 921 695 0 1079 1083 915 0 0 81 1 699 1894 697 695 1
079 0 694 703 1084 81 1 698 1621 887 693 1083 694 1085 1079 1086 83 3 1082 .7921
56862745098 .819607843137255 .933333333333333 81 2 1083 1421 921 693 0 698 1087
 1081 0 0 81 1 1085 1620 887 16 1087 703 0 698 1088 83 3 1086 .792156862745098 .
819607843137255 .933333333333333 81 2 1087 1419 921 16 0 1085 0 1083 0 0 81 1 70
3 1895 697 16 1085 0 699 709 1089 83 3 1088 .792156862745098 .819607843137255 .9
33333333333333 81 1 709 1896 697 539 911 0 703 712 1090 82 1 1089 -1405353832 82
 1 1090 -1431371624 82 1 1084 -1408696168 81 2 915 1425 921 539 0 911 1081 918 0
 0 82 1 923 -1431240552 83 3 917 .792156862745098 .819607843137255 .933333333333
333 79 15 914 SDL/TYSA_COLOUR83 3 908 .792156862745098 .819607843137255 .9333333
33333333 83 3 901 .792156862745098 .819607843137255 .933333333333333 15 897 987
 0 1091 858 0 17 1091 0 897 1092 1093 150 58 422 0 329 -17 1092 0 897 1094 1091
 258 329 322 0 0 -17 1093 0 897 1091 336 56 254 351 0 0 -17 58 0 29 76 152 56 10
91 422 0 431 +16 422 735 0 ?58 33 409 423 33 33 1 17 329 0 869 433 1095 150 1092
 322 0 0 +15 869 964 0 329 824 0 17 433 0 869 164 329 132 152 427 0 1096 +17 109
5 0 869 329 164 258 327 319 0 1092 -17 164 0 869 1095 433 162 1096 593 0 327 +17
 327 0 866 589 260 162 1095 319 0 1097 +15 866 969 0 327 863 0 17 589 0 866 1098
 327 159 1097 587 0 325 +17 260 0 866 327 1098 258 1094 330 0 1095 +17 1097 0 81
5 611 161 162 589 587 0 1099 -15 815 1073 0 161 812 0 17 611 0 815 1100 1097 192
 1099 609 0 566 +17 161 0 815 1097 1100 159 1101 607 0 1102 +17 1099 0 736 1096
 194 162 611 609 0 0 -15 736 83 0 194 731 0 17 1096 0 736 442 1099 132 164 593 0
 0 -17 194 0 736 1099 442 192 103 479 0 611 -17 442 0 736 194 1096 101 134 435 0
 0 +17 103 0 722 106 566 101 194 479 0 1103 +15 722 1412 0 566 682 680 17 106 0
 722 191 103 104 1103 477 0 1104 +17 566 0 722 103 191 192 1100 564 0 0 +17 1103
 0 806 134 1104 101 106 477 0 442 -15 806 51 0 134 803 0 17 134 0 806 1105 1103
 132 442 435 0 461 -17 1104 0 806 1103 1105 104 439 437 0 1106 -17 1105 0 806 11
04 134 124 461 459 0 439 -17 439 0 739 1102 1106 124 1104 437 0 592 +17 1106 0 7
39 439 1101 104 191 480 0 0 -15 739 87 0 439 735 0 17 1101 0 739 1106 1102 189 1
61 607 0 1100 -17 191 0 722 566 106 189 1106 480 0 1101 +17 1102 0 739 1101 439
 159 592 590 0 589 -17 1100 0 815 161 611 189 566 564 0 0 -17 592 0 872 34 325 1
24 1102 590 0 0 +15 872 1077 0 592 811 0 17 34 0 872 257 592 11 30 416 0 1107 +1
7 325 0 872 592 257 159 1098 323 0 0 +17 257 0 872 325 34 255 1107 320 0 1094 +1
7 1098 0 866 260 589 255 325 323 0 0 -17 1107 0 897 32 1094 11 257 320 0 0 -17 1
094 0 897 1107 1092 255 260 330 0 1098 -17 32 0 897 251 1107 54 27 33 0 1108 -17
 251 0 897 336 32 249 1108 393 0 1109 +17 1108 0 852 1110 1111 54 251 393 0 0 -1
5 852 1121 0 1110 838 0 17 1110 0 852 224 1108 71 31 409 0 1112 -17 1111 0 852 1
108 224 249 1113 384 0 0 +16 393 772 0 ?251 351 622 391 0 0 1 16 622 830 0 ?242
 393 619 620 0 0 1 17 242 0 849 1114 411 240 301 622 0 346 +15 849 1106 0 1115 8
33 0 17 1114 0 849 1115 242 225 1116 1117 0 360 -17 411 0 849 242 1115 44 64 399
 0 301 +17 301 0 284 299 346 44 242 622 0 0 -17 346 0 284 301 239 240 1118 287 0
 1116 +17 239 0 284 346 1119 237 1120 619 0 1118 +17 1118 0 834 1121 1116 237 34
6 287 0 1122 -17 1116 0 834 1118 360 240 1114 1117 0 0 +15 834 1103 0 1118 830 0
 17 360 0 834 1116 1121 225 1123 358 0 0 +16 1117 828 0 ?1116 384 634 1124 0 0 1
 16 384 838 0 ?1111 378 1117 387 0 0 1 16 634 826 0 ?1122 1117 631 629 0 0 1 133
 1124 1279 0 1117 395 1125 0 +1125 .026 -.0022 -.002 .026 -.0022 0 0 .002 30 395
 1280 0 1 389 1124 1126 +0 -.0123 0 1 0 0 30 1125 1278 0 1 1124 625 1127 +.026 -
.0022 -.002 0 0 1 30 625 1277 0 1 1125 629 1128 +0 -.0022 0 1 0 0 141 1127 1124
 1127 1127 1125 133 629 1276 0 634 625 626 0 +626 .026 -3e-4 -.002 .026 -3e-4 0
 0 .002 141 1128 620 1128 1128 625 30 389 1281 0 1 387 395 1129 +.026 -.0123 -.0
02 0 0 1 141 1126 391 1126 1126 395 141 1129 387 1129 1129 389 17 1122 0 846 112
0 230 237 1121 634 0 0 +15 846 1097 0 1130 827 0 17 1120 0 846 1130 1122 141 239
 619 0 0 -17 230 0 846 1122 1130 228 1131 356 0 1121 +17 1121 0 834 360 1118 228
 1122 634 0 1123 -17 1123 0 658 1131 227 228 360 358 0 0 -15 658 1408 0 1132 18
 528 17 1131 0 658 1132 1123 59 230 356 0 0 -17 227 0 658 1123 1132 225 1115 361
 0 1114 +17 1132 0 658 227 1131 62 61 402 0 1115 -17 1115 0 849 411 1114 62 227
 361 0 0 -17 61 0 702 143 64 59 1132 402 0 1130 +15 702 690 0 146 695 0 17 143 0
 702 43 61 141 1130 396 0 1119 +17 64 0 702 61 48 62 411 399 0 1132 -17 1130 0 8
46 230 1120 59 143 396 0 1131 -17 48 0 702 64 146 44 299 302 0 411 +17 146 0 702
 48 468 144 293 417 0 299 -16 302 747 0 ?48 400 41 397 400 400 1 17 468 0 702 14
6 121 138 762 466 0 293 +17 293 0 290 176 291 138 146 417 0 295 +17 295 0 747 45
4 1133 138 176 296 0 0 -15 747 99 0 182 744 0 17 454 0 747 182 295 113 140 446 0
 0 +17 1133 0 747 295 182 174 599 597 0 0 -17 182 0 747 1133 454 180 115 472 0 5
99 -17 599 0 821 1134 281 180 1133 597 0 572 +15 821 1047 0 173 818 0 17 1134 0
 821 173 599 177 572 570 0 0 -17 281 0 821 599 173 174 279 573 0 1133 -17 572 0
 683 115 179 180 1134 570 0 0 +15 683 1409 0 572 682 787 17 115 0 683 118 572 11
3 182 472 0 761 +17 179 0 683 572 118 177 757 469 0 759 +17 118 0 683 179 115 11
6 761 470 0 758 +17 759 0 749 757 756 177 173 600 0 1134 -17 173 0 821 281 1134
 171 759 600 0 756 +17 761 0 760 140 758 113 118 470 0 454 -15 760 43 0 140 713
 0 17 140 0 760 762 761 138 454 446 0 468 -17 762 0 760 758 140 119 468 466 0 45
1 -17 279 0 272 274 273 171 281 573 0 282 +17 121 0 702 468 43 119 405 403 0 762
 -17 43 0 702 121 143 36 1119 400 0 405 +17 1119 0 284 239 285 141 43 400 0 1120
 -17 285 0 284 1119 275 36 269 304 0 0 -17 224 0 852 1111 1110 222 1112 363 0 11
13 +17 1113 0 839 367 1109 222 1111 384 0 1135 -15 839 1127 0 1109 835 0 17 367
 0 839 383 1113 219 1135 365 0 0 +17 1109 0 839 1113 383 249 336 332 0 1111 -17
 1135 0 754 1112 221 222 367 365 0 0 -15 754 1413 0 1136 18 656 17 1112 0 754 11
36 1135 71 224 363 0 0 -17 221 0 754 1135 1136 219 1137 368 0 1138 +17 1136 0 75
4 221 1112 74 73 458 0 1137 -17 1137 0 855 431 1138 74 221 368 0 0 -17 1138 0 85
5 1137 254 219 383 378 0 367 -15 855 1130 0 1137 755 0 17 254 0 855 1138 431 252
 1093 351 0 336 +17 383 0 839 1109 367 252 1138 378 0 0 +17 431 0 855 254 1137 5
6 76 419 0 1093 +17 336 0 897 1093 251 252 1109 332 0 383 +17 76 0 29 73 58 74 4
31 419 0 1136 -15 29 641 0 73 16 0 17 73 0 29 31 76 71 1136 458 0 1110 +17 31 0
 29 27 73 54 1110 409 0 32 +16 458 582 0 ?73 455 509 506 402 509 1 16 509 588 0
 ?67 458 402 506 458 402 1 17 67 0 37 39 70 65 657 509 0 647 +17 39 0 37 35 67 4
9 647 398 0 40 +17 70 0 37 67 53 68 424 412 0 657 -17 30 0 29 461 27 124 34 416
 0 1105 -17 461 0 29 152 30 132 1105 459 0 433 +17 152 0 29 58 461 150 433 427 0
 1091 -82 1 893 -1482096488 83 3 891 .792156862745098 .819607843137255 .93333333
3333333 79 14 886 SWEntUnchanged82 1 796 1468137623 17 487 0 542 203 540 89 791
 485 0 0 +82 1 752 -1428815720 82 1 700 -1407582056 30 557 1269 0 1 637 556 1139
 +.026 -.0063 -.002 0 0 1 141 1139 637 1139 1139 557 141 630 629 630 630 626 141
 558 624 558 558 556 19 17 9 0 1 0 9 5 S0 74 4 CI16 index_map_offset0 0 1 dCCZ20
 15 11 0 0 1140 1141 903 1142 1143 1049 1144 1145 1050 13 2 0 0 0 0 0 0 0 0 0 81
 2 1140 4 1146 1 0 1141 0 0 0 1147 81 5 1141 7 1148 1 1140 1142 0 0 1149 0 0 0 0
 81 2 1142 1414 1150 1 1141 1143 0 0 0 1151 81 2 1143 1417 1152 1 1142 1144 0 0
 0 1153 81 1 1144 1514 1154 1 1143 1145 0 0 1155 81 2 1145 1515 1156 1 1144 13 0
 0 0 0 81 2 13 1891 1157 1 1145 2 0 0 1158 0 80 2 1157 1159 1160 8004 0 0 0 0 3
 5 0 0 0 FFTFFFFFFFFFFF2 3 83 1 1158 1e3 79 16 1160 SDL/TYSA_DENSITY80 2 1156 11
61 1162 9000 0 0 0 0 3 5 0 0 0 FFTFFFFFFFFFFF9 1 79 16 1162 BODY_RECIPE_200180 1
 1154 1163 1164 9000 1 1 1 1 1 1 1 1 0 FFTFFFFFFFFFFF1 82 1 1155 43412 79 10 116
4 BODY_MATCH80 2 1152 1165 1166 9000 0 0 0 0 3 5 0 0 0 FFTFFFFFFFFFFF9 1 82 1 11
53 117 79 30 1166 LAST_BODY_MODIFYING_FEATURE_ID80 2 1150 1167 1168 9000 0 0 0 0
 3 5 0 0 0 FFTFFFFFFFFFFF9 1 82 1 1151 137 79 19 1168 ENT_TIME_STAMP_200180 5 11
48 1169 1170 9000 0 0 0 0 3 6 0 0 0 FFTTTTTTFTTFTT2 2 2 2 2 83 1 1149 1 79 19 11
70 BODY_SCALING_FACTOR80 2 1146 1171 1172 9000 0 0 0 0 3 5 0 0 0 FFTFFFFFFFFFFF9
 1 82 1 1147 1 79 24 1172 BODY_IN_LIGHTWEIGHT_PERM80 2 12 1173 1174 9000 0 0 0 0
 3 5 0 0 0 FFTFFFFFFFFFFF9 1 82 1 14 110 79 12 1174 ATOM_ID_20011 0 
